<mxfile host="65bd71144e">
    <diagram id="gGsw4H8kystXVpl7gZS2" name="Page-1">
        <mxGraphModel dx="1191" dy="1528" grid="1" gridSize="10" guides="1" tooltips="1" connect="1" arrows="1" fold="1" page="1" pageScale="1" pageWidth="850" pageHeight="1100" math="0" shadow="0">
            <root>
                <mxCell id="0"/>
                <mxCell id="1" parent="0"/>
                <mxCell id="2" value="🍋 Lemonade Stand Menu" style="strokeWidth=1;shadow=0;dashed=0;align=center;html=1;shape=mxgraph.mockup.containers.window;align=left;verticalAlign=top;spacingLeft=8;strokeColor2=#008cff;strokeColor3=#c4c4c4;fontColor=#666666;mainText=;fontSize=17;labelBackgroundColor=none;whiteSpace=wrap;" parent="1" vertex="1">
                    <mxGeometry x="50" y="50" width="600" height="460" as="geometry"/>
                </mxCell>
                <mxCell id="3" value="" style="rounded=0;whiteSpace=wrap;html=1;fillColor=none;strokeColor=#d3d3d3;strokeWidth=2;" parent="1" vertex="1">
                    <mxGeometry x="70" y="100" width="375" height="400" as="geometry"/>
                </mxCell>
                <mxCell id="4" value="" style="rounded=0;whiteSpace=wrap;html=1;fillColor=none;strokeColor=#d3d3d3;strokeWidth=2;" parent="1" vertex="1">
                    <mxGeometry x="450" y="100" width="180" height="300" as="geometry"/>
                </mxCell>
                <mxCell id="6" value="Purchase $4.50" style="strokeWidth=1;shadow=0;dashed=0;align=center;html=1;shape=mxgraph.mockup.buttons.button;strokeColor=#666666;fontColor=#ffffff;mainText=;buttonStyle=round;fontSize=17;fontStyle=1;fillColor=#008cff;whiteSpace=wrap;" parent="1" vertex="1">
                    <mxGeometry x="450" y="450" width="180" height="50" as="geometry"/>
                </mxCell>
                <mxCell id="25" value="250ml Classic Lemonade" style="text;html=1;align=left;verticalAlign=middle;whiteSpace=wrap;rounded=0;fontSize=11;" parent="1" vertex="1">
                    <mxGeometry x="530" y="115" width="90" height="30" as="geometry"/>
                </mxCell>
                <mxCell id="31" value="250ml Strawberry Lemonade" style="text;html=1;align=left;verticalAlign=middle;whiteSpace=wrap;rounded=0;fontSize=11;" parent="1" vertex="1">
                    <mxGeometry x="530" y="163" width="90" height="30" as="geometry"/>
                </mxCell>
                <mxCell id="40" value="$2.50" style="text;html=1;align=left;verticalAlign=middle;whiteSpace=wrap;rounded=0;fontSize=11;" parent="1" vertex="1">
                    <mxGeometry x="486" y="174" width="30" height="8" as="geometry"/>
                </mxCell>
                <mxCell id="41" value="$2.00" style="text;html=1;align=left;verticalAlign=middle;whiteSpace=wrap;rounded=0;fontSize=11;" parent="1" vertex="1">
                    <mxGeometry x="487" y="129" width="30" height="8" as="geometry"/>
                </mxCell>
                <mxCell id="46" value="1x" style="text;html=1;align=center;verticalAlign=middle;whiteSpace=wrap;rounded=0;fontSize=11;" parent="1" vertex="1">
                    <mxGeometry x="454" y="174" width="30" height="8" as="geometry"/>
                </mxCell>
                <mxCell id="48" value="1x" style="text;html=1;align=center;verticalAlign=middle;whiteSpace=wrap;rounded=0;fontSize=11;" parent="1" vertex="1">
                    <mxGeometry x="454" y="129" width="30" height="8" as="geometry"/>
                </mxCell>
                <mxCell id="50" value="Lemons&lt;div&gt;$1.00&lt;/div&gt;" style="whiteSpace=wrap;html=1;aspect=fixed;" parent="1" vertex="1">
                    <mxGeometry x="80" y="115" width="116" height="116" as="geometry"/>
                </mxCell>
                <mxCell id="53" value="&lt;div&gt;&lt;span style=&quot;background-color: transparent;&quot;&gt;Thank You for your purchase&lt;/span&gt;&lt;/div&gt;" style="strokeWidth=1;shadow=0;dashed=0;align=center;html=1;shape=mxgraph.mockup.containers.rrect;rSize=0;strokeColor=#666666;fontColor=#666666;fontSize=17;verticalAlign=top;whiteSpace=wrap;fillColor=#ffffff;spacingTop=32;" parent="1" vertex="1">
                    <mxGeometry x="960" y="697" width="250" height="100" as="geometry"/>
                </mxCell>
                <mxCell id="54" value="Purchase" style="strokeWidth=1;shadow=0;dashed=0;align=center;html=1;shape=mxgraph.mockup.containers.rrect;rSize=0;fontSize=17;fontColor=#666666;strokeColor=#666666;align=left;spacingLeft=8;fillColor=#ffffff;resizeWidth=1;whiteSpace=wrap;" parent="53" vertex="1">
                    <mxGeometry width="250" height="30" relative="1" as="geometry"/>
                </mxCell>
                <mxCell id="55" value="" style="shape=ellipse;strokeColor=#008cff;resizable=0;fillColor=none;html=1;" parent="54" vertex="1">
                    <mxGeometry x="1" y="0.5" width="20" height="20" relative="1" as="geometry">
                        <mxPoint x="-25" y="-10" as="offset"/>
                    </mxGeometry>
                </mxCell>
                <mxCell id="56" value="OK" style="strokeWidth=1;shadow=0;dashed=0;align=center;html=1;shape=mxgraph.mockup.containers.rrect;rSize=0;fontSize=16;fontColor=#666666;strokeColor=#c4c4c4;resizable=0;whiteSpace=wrap;fillColor=#ffffff;" parent="53" vertex="1">
                    <mxGeometry x="0.5" y="1" width="120" height="25" relative="1" as="geometry">
                        <mxPoint x="-60" y="-33" as="offset"/>
                    </mxGeometry>
                </mxCell>
                <mxCell id="57" value="Lemonade&lt;div&gt;$2.00&lt;/div&gt;" style="whiteSpace=wrap;html=1;aspect=fixed;" parent="1" vertex="1">
                    <mxGeometry x="199.5" y="115" width="116" height="116" as="geometry"/>
                </mxCell>
                <mxCell id="60" value="Mango Lemonade&lt;div&gt;$2.50&lt;/div&gt;" style="whiteSpace=wrap;html=1;aspect=fixed;" parent="1" vertex="1">
                    <mxGeometry x="320" y="115" width="114.78" height="116" as="geometry"/>
                </mxCell>
                <mxCell id="68" value="Clear Cart" style="strokeWidth=1;shadow=0;dashed=0;align=center;html=1;shape=mxgraph.mockup.buttons.button;strokeColor=#666666;fontColor=#ffffff;mainText=;buttonStyle=round;fontSize=14;fontStyle=1;fillColor=#008cff;whiteSpace=wrap;" parent="1" vertex="1">
                    <mxGeometry x="450" y="410" width="180" height="30" as="geometry"/>
                </mxCell>
                <mxCell id="72" value="&lt;div&gt;&lt;span style=&quot;background-color: transparent;&quot;&gt;Choose desired amount of product&lt;/span&gt;&lt;/div&gt;" style="strokeWidth=1;shadow=0;dashed=0;align=center;html=1;shape=mxgraph.mockup.containers.rrect;rSize=0;strokeColor=#666666;fontColor=#666666;fontSize=17;verticalAlign=top;whiteSpace=wrap;fillColor=#ffffff;spacingTop=32;" parent="1" vertex="1">
                    <mxGeometry x="960" y="370" width="250" height="187" as="geometry"/>
                </mxCell>
                <mxCell id="73" value="Amount" style="strokeWidth=1;shadow=0;dashed=0;align=center;html=1;shape=mxgraph.mockup.containers.rrect;rSize=0;fontSize=17;fontColor=#666666;strokeColor=#666666;align=left;spacingLeft=8;fillColor=#ffffff;resizeWidth=1;whiteSpace=wrap;" parent="72" vertex="1">
                    <mxGeometry width="250" height="30" relative="1" as="geometry"/>
                </mxCell>
                <mxCell id="74" value="" style="shape=ellipse;strokeColor=#008cff;resizable=0;fillColor=none;html=1;" parent="73" vertex="1">
                    <mxGeometry x="1" y="0.5" width="20" height="20" relative="1" as="geometry">
                        <mxPoint x="-25" y="-10" as="offset"/>
                    </mxGeometry>
                </mxCell>
                <mxCell id="75" value="Confirm" style="strokeWidth=1;shadow=0;dashed=0;align=center;html=1;shape=mxgraph.mockup.containers.rrect;rSize=0;fontSize=16;fontColor=#666666;strokeColor=#c4c4c4;resizable=0;whiteSpace=wrap;fillColor=#ffffff;" parent="72" vertex="1">
                    <mxGeometry x="0.5" y="1" width="120" height="25" relative="1" as="geometry">
                        <mxPoint x="-60" y="-33" as="offset"/>
                    </mxGeometry>
                </mxCell>
                <mxCell id="79" value="&lt;table cellpadding=&quot;0&quot; cellspacing=&quot;0&quot; style=&quot;width:100%;height:100%;&quot;&gt;&lt;tbody&gt;&lt;tr&gt;&lt;td style=&quot;width:85%&quot;&gt;1&lt;/td&gt;&lt;td style=&quot;width:15%&quot;&gt;&lt;/td&gt;&lt;/tr&gt;&lt;/tbody&gt;&lt;/table&gt;" style="strokeWidth=1;shadow=0;dashed=0;align=center;html=1;shape=mxgraph.mockup.forms.spinner;strokeColor=#999999;spinLayout=right;spinStyle=normal;adjStyle=triangle;fillColor=#aaddff;fontSize=17;fontColor=#666666;mainText=;html=1;overflow=fill;" parent="72" vertex="1">
                    <mxGeometry x="90" y="93.175" width="70" height="43.24375" as="geometry"/>
                </mxCell>
                <mxCell id="236" value="" style="endArrow=none;html=1;" edge="1" parent="72">
                    <mxGeometry width="50" height="50" relative="1" as="geometry">
                        <mxPoint x="275" y="80" as="sourcePoint"/>
                        <mxPoint x="-25" y="81.8798876953125" as="targetPoint"/>
                    </mxGeometry>
                </mxCell>
                <mxCell id="237" value="" style="endArrow=none;html=1;" edge="1" parent="72">
                    <mxGeometry width="50" height="50" relative="1" as="geometry">
                        <mxPoint x="270" y="140" as="sourcePoint"/>
                        <mxPoint x="-30" y="141.8798876953125" as="targetPoint"/>
                    </mxGeometry>
                </mxCell>
                <mxCell id="76" value="Item Select" style="text;html=1;align=left;verticalAlign=middle;whiteSpace=wrap;rounded=0;fontSize=11;" parent="1" vertex="1">
                    <mxGeometry x="80" y="97" width="59.5" height="8" as="geometry"/>
                </mxCell>
                <mxCell id="77" value="Cart" style="text;html=1;align=left;verticalAlign=middle;whiteSpace=wrap;rounded=0;fontSize=11;" parent="1" vertex="1">
                    <mxGeometry x="461" y="97" width="59.5" height="7" as="geometry"/>
                </mxCell>
                <mxCell id="116" value="" style="strokeWidth=1;shadow=0;dashed=0;align=center;html=1;shape=mxgraph.mockup.containers.rrect;rSize=0;strokeColor=#666666;fontColor=#666666;fontSize=17;verticalAlign=top;whiteSpace=wrap;fillColor=#ffffff;spacingTop=32;movable=1;resizable=1;rotatable=1;deletable=1;editable=1;locked=0;connectable=1;" parent="1" vertex="1">
                    <mxGeometry x="960" y="70" width="390" height="237.5" as="geometry"/>
                </mxCell>
                <mxCell id="117" value="Lemonade Customisation" style="strokeWidth=1;shadow=0;dashed=0;align=center;html=1;shape=mxgraph.mockup.containers.rrect;rSize=0;fontSize=17;fontColor=#666666;strokeColor=#666666;align=left;spacingLeft=8;fillColor=#ffffff;resizeWidth=1;whiteSpace=wrap;" parent="116" vertex="1">
                    <mxGeometry width="390" height="30" relative="1" as="geometry"/>
                </mxCell>
                <mxCell id="118" value="" style="shape=ellipse;strokeColor=#008cff;resizable=0;fillColor=none;html=1;" parent="117" vertex="1">
                    <mxGeometry x="1" y="0.5" width="20" height="20" relative="1" as="geometry">
                        <mxPoint x="-25" y="-10" as="offset"/>
                    </mxGeometry>
                </mxCell>
                <mxCell id="119" value="Confirm" style="strokeWidth=1;shadow=0;dashed=0;align=center;html=1;shape=mxgraph.mockup.containers.rrect;rSize=0;fontSize=16;fontColor=#666666;strokeColor=#c4c4c4;resizable=0;whiteSpace=wrap;fillColor=#ffffff;" parent="116" vertex="1">
                    <mxGeometry x="0.5" y="1" width="120" height="25" relative="1" as="geometry">
                        <mxPoint x="-60" y="-33" as="offset"/>
                    </mxGeometry>
                </mxCell>
                <mxCell id="121" value="&lt;span style=&quot;color: rgb(63, 63, 63); font-family: Helvetica; font-style: normal; font-variant-ligatures: normal; font-variant-caps: normal; font-weight: 400; letter-spacing: normal; orphans: 2; text-indent: 0px; text-transform: none; widows: 2; word-spacing: 0px; -webkit-text-stroke-width: 0px; white-space: normal; background-color: rgb(251, 251, 251); text-decoration-thickness: initial; text-decoration-style: initial; text-decoration-color: initial; float: none; display: inline !important;&quot;&gt;&lt;font style=&quot;font-size: 18px;&quot;&gt;Size&lt;/font&gt;&lt;/span&gt;" style="text;whiteSpace=wrap;html=1;fontSize=12;align=center;verticalAlign=middle;" parent="116" vertex="1">
                    <mxGeometry x="48.36000000000001" y="42.5" width="84.24000000000001" height="37.5" as="geometry"/>
                </mxCell>
                <mxCell id="122" value="&lt;span style=&quot;color: rgb(63, 63, 63); font-family: Helvetica; font-style: normal; font-variant-ligatures: normal; font-variant-caps: normal; font-weight: 400; letter-spacing: normal; orphans: 2; text-indent: 0px; text-transform: none; widows: 2; word-spacing: 0px; -webkit-text-stroke-width: 0px; white-space: normal; background-color: rgb(251, 251, 251); text-decoration-thickness: initial; text-decoration-style: initial; text-decoration-color: initial; float: none; display: inline !important;&quot;&gt;&lt;font style=&quot;font-size: 18px;&quot;&gt;Condiments&lt;/font&gt;&lt;/span&gt;" style="text;whiteSpace=wrap;html=1;fontSize=12;align=center;verticalAlign=middle;" parent="116" vertex="1">
                    <mxGeometry x="235.56000000000003" y="42.5" width="84.24000000000001" height="37.5" as="geometry"/>
                </mxCell>
                <mxCell id="123" value="250ml" style="shape=ellipse;fillColor=#eeeeee;strokeColor=#999999;gradientColor=#cccccc;html=1;align=left;spacingLeft=4;fontSize=17;fontColor=#666666;labelPosition=right;shadow=0;movable=1;resizable=1;rotatable=1;deletable=1;editable=1;locked=0;connectable=1;" parent="116" vertex="1">
                    <mxGeometry x="20" y="80" width="15" height="15" as="geometry"/>
                </mxCell>
                <mxCell id="124" value="500ml - +$2" style="shape=ellipse;fillColor=#eeeeee;strokeColor=#999999;gradientColor=#cccccc;html=1;align=left;spacingLeft=4;fontSize=17;fontColor=#666666;labelPosition=right;shadow=0;movable=1;resizable=1;rotatable=1;deletable=1;editable=1;locked=0;connectable=1;" parent="116" vertex="1">
                    <mxGeometry x="20" y="102.5" width="15" height="15" as="geometry"/>
                </mxCell>
                <mxCell id="125" value="1L&amp;nbsp;&lt;span style=&quot;color: rgb(102, 102, 102);&quot;&gt;- +$4&lt;/span&gt;" style="shape=ellipse;fillColor=#eeeeee;strokeColor=#999999;gradientColor=#cccccc;html=1;align=left;spacingLeft=4;fontSize=17;fontColor=#666666;labelPosition=right;shadow=0;movable=1;resizable=1;rotatable=1;deletable=1;editable=1;locked=0;connectable=1;" parent="116" vertex="1">
                    <mxGeometry x="20" y="122.5" width="15" height="15" as="geometry"/>
                </mxCell>
                <mxCell id="245" value="" style="edgeStyle=none;html=1;" edge="1" parent="116" source="126" target="122">
                    <mxGeometry relative="1" as="geometry"/>
                </mxCell>
                <mxCell id="126" value="Ice - +$0.50" style="strokeWidth=1;shadow=0;dashed=0;align=center;html=1;shape=mxgraph.mockup.forms.rrect;rSize=0;fillColor=#eeeeee;strokeColor=#999999;gradientColor=#cccccc;align=left;spacingLeft=4;fontSize=17;fontColor=#666666;labelPosition=right;movable=1;resizable=1;rotatable=1;deletable=1;editable=1;locked=0;connectable=1;" parent="116" vertex="1">
                    <mxGeometry x="208.56" y="80" width="15" height="15" as="geometry"/>
                </mxCell>
                <mxCell id="127" value="Extra&amp;nbsp;&lt;span style=&quot;background-color: transparent;&quot;&gt;Sugar - +$0.50&lt;/span&gt;" style="strokeWidth=1;shadow=0;dashed=0;align=center;html=1;shape=mxgraph.mockup.forms.rrect;rSize=0;fillColor=#eeeeee;strokeColor=#999999;gradientColor=#cccccc;align=left;spacingLeft=4;fontSize=17;fontColor=#666666;labelPosition=right;movable=1;resizable=1;rotatable=1;deletable=1;editable=1;locked=0;connectable=1;" parent="116" vertex="1">
                    <mxGeometry x="208.56" y="102.5" width="15" height="15" as="geometry"/>
                </mxCell>
                <mxCell id="219" value="" style="endArrow=none;html=1;" parent="116" edge="1">
                    <mxGeometry width="50" height="50" relative="1" as="geometry">
                        <mxPoint x="405.6" y="70.5" as="sourcePoint"/>
                        <mxPoint x="-62.400000000000006" y="72.3798876953125" as="targetPoint"/>
                    </mxGeometry>
                </mxCell>
                <mxCell id="220" value="" style="endArrow=none;html=1;" parent="116" edge="1">
                    <mxGeometry width="50" height="50" relative="1" as="geometry">
                        <mxPoint x="421.20000000000005" y="100.62" as="sourcePoint"/>
                        <mxPoint x="-46.800000000000004" y="102.49988769531251" as="targetPoint"/>
                    </mxGeometry>
                </mxCell>
                <mxCell id="221" value="" style="endArrow=none;html=1;" parent="116" edge="1">
                    <mxGeometry width="50" height="50" relative="1" as="geometry">
                        <mxPoint x="405.6" y="122.06" as="sourcePoint"/>
                        <mxPoint x="-62.400000000000006" y="123.9398876953125" as="targetPoint"/>
                    </mxGeometry>
                </mxCell>
                <mxCell id="222" value="" style="endArrow=none;html=1;" parent="116" edge="1">
                    <mxGeometry width="50" height="50" relative="1" as="geometry">
                        <mxPoint x="405.6" y="140.5" as="sourcePoint"/>
                        <mxPoint x="-62.400000000000006" y="142.3798876953125" as="targetPoint"/>
                    </mxGeometry>
                </mxCell>
                <mxCell id="223" value="" style="endArrow=none;html=1;" parent="116" edge="1">
                    <mxGeometry width="50" height="50" relative="1" as="geometry">
                        <mxPoint x="194.4852000000001" y="-10" as="sourcePoint"/>
                        <mxPoint x="193.44000000000003" y="240.5" as="targetPoint"/>
                    </mxGeometry>
                </mxCell>
                <mxCell id="241" value="&lt;span style=&quot;color: rgb(63, 63, 63); font-family: Helvetica; font-style: normal; font-variant-ligatures: normal; font-variant-caps: normal; font-weight: 400; letter-spacing: normal; orphans: 2; text-indent: 0px; text-transform: none; widows: 2; word-spacing: 0px; -webkit-text-stroke-width: 0px; white-space: normal; background-color: rgb(251, 251, 251); text-decoration-thickness: initial; text-decoration-style: initial; text-decoration-color: initial; float: none; display: inline !important;&quot;&gt;&lt;font style=&quot;font-size: 18px;&quot;&gt;(Price)&lt;/font&gt;&lt;/span&gt;" style="text;whiteSpace=wrap;html=1;fontSize=12;align=center;verticalAlign=middle;" vertex="1" parent="116">
                    <mxGeometry x="151.32" y="160" width="84.24000000000001" height="37.5" as="geometry"/>
                </mxCell>
                <mxCell id="243" value="" style="endArrow=none;html=1;" edge="1" parent="116">
                    <mxGeometry width="50" height="50" relative="1" as="geometry">
                        <mxPoint x="421.20000000000005" y="197.5" as="sourcePoint"/>
                        <mxPoint x="-46.800000000000004" y="199.3798876953125" as="targetPoint"/>
                    </mxGeometry>
                </mxCell>
                <mxCell id="138" value="&lt;span style=&quot;color: rgb(0, 0, 0);&quot;&gt;Strawberry Lemonade&lt;/span&gt;&lt;div&gt;&lt;span style=&quot;color: rgb(0, 0, 0);&quot;&gt;$2.50&lt;/span&gt;&lt;/div&gt;" style="whiteSpace=wrap;html=1;aspect=fixed;" parent="1" vertex="1">
                    <mxGeometry x="80.11" y="235" width="116" height="116" as="geometry"/>
                </mxCell>
                <mxCell id="139" value="&lt;span style=&quot;color: rgb(0, 0, 0);&quot;&gt;Blueberry Lemonade&lt;/span&gt;&lt;div&gt;&lt;span style=&quot;color: rgb(0, 0, 0);&quot;&gt;$2.50&lt;/span&gt;&lt;/div&gt;" style="whiteSpace=wrap;html=1;aspect=fixed;" parent="1" vertex="1">
                    <mxGeometry x="199.61" y="235" width="116" height="116" as="geometry"/>
                </mxCell>
                <mxCell id="140" value="&lt;span style=&quot;color: rgb(0, 0, 0);&quot;&gt;Raspberry&amp;nbsp;&lt;/span&gt;&lt;span style=&quot;background-color: transparent;&quot;&gt;Lemonade&lt;/span&gt;&lt;div&gt;&lt;span style=&quot;background-color: transparent;&quot;&gt;$2.50&lt;/span&gt;&lt;/div&gt;" style="whiteSpace=wrap;html=1;aspect=fixed;" parent="1" vertex="1">
                    <mxGeometry x="320.11" y="235" width="114.78" height="116" as="geometry"/>
                </mxCell>
                <mxCell id="135" value="" style="endArrow=none;html=1;" parent="1" edge="1">
                    <mxGeometry width="50" height="50" relative="1" as="geometry">
                        <mxPoint x="306.61" y="631.12" as="sourcePoint"/>
                        <mxPoint x="306.61" y="-31.120112304687495" as="targetPoint"/>
                    </mxGeometry>
                </mxCell>
                <mxCell id="141" value="" style="endArrow=none;html=1;" parent="1" edge="1">
                    <mxGeometry width="50" height="50" relative="1" as="geometry">
                        <mxPoint x="180" y="624.12" as="sourcePoint"/>
                        <mxPoint x="180" y="-38.12011230468749" as="targetPoint"/>
                    </mxGeometry>
                </mxCell>
                <mxCell id="142" value="" style="endArrow=none;html=1;" parent="1" edge="1">
                    <mxGeometry width="50" height="50" relative="1" as="geometry">
                        <mxPoint x="445" y="631.12" as="sourcePoint"/>
                        <mxPoint x="445" y="-31.120112304687492" as="targetPoint"/>
                    </mxGeometry>
                </mxCell>
                <mxCell id="144" value="Column 0" style="text;html=1;align=center;verticalAlign=middle;whiteSpace=wrap;rounded=0;" parent="1" vertex="1">
                    <mxGeometry x="70" y="-10" width="60" height="30" as="geometry"/>
                </mxCell>
                <mxCell id="145" value="Column 1" style="text;html=1;align=center;verticalAlign=middle;whiteSpace=wrap;rounded=0;" parent="1" vertex="1">
                    <mxGeometry x="210" y="-10" width="60" height="30" as="geometry"/>
                </mxCell>
                <mxCell id="146" value="Column 2" style="text;html=1;align=center;verticalAlign=middle;whiteSpace=wrap;rounded=0;" parent="1" vertex="1">
                    <mxGeometry x="347.39" y="-10" width="60" height="30" as="geometry"/>
                </mxCell>
                <mxCell id="147" value="Column 3" style="text;html=1;align=center;verticalAlign=middle;whiteSpace=wrap;rounded=0;" parent="1" vertex="1">
                    <mxGeometry x="520.5" y="-10" width="60" height="30" as="geometry"/>
                </mxCell>
                <mxCell id="148" value="" style="endArrow=none;html=1;" parent="1" edge="1">
                    <mxGeometry width="50" height="50" relative="1" as="geometry">
                        <mxPoint x="640" y="631.12" as="sourcePoint"/>
                        <mxPoint x="640" y="-31.120112304687492" as="targetPoint"/>
                    </mxGeometry>
                </mxCell>
                <mxCell id="149" value="" style="endArrow=none;html=1;" parent="1" edge="1">
                    <mxGeometry width="50" height="50" relative="1" as="geometry">
                        <mxPoint x="800" y="279.06" as="sourcePoint"/>
                        <mxPoint x="-80" y="280.9398876953125" as="targetPoint"/>
                    </mxGeometry>
                </mxCell>
                <mxCell id="150" value="" style="endArrow=none;html=1;" parent="1" edge="1">
                    <mxGeometry width="50" height="50" relative="1" as="geometry">
                        <mxPoint x="780" y="410" as="sourcePoint"/>
                        <mxPoint x="-100" y="411.8798876953125" as="targetPoint"/>
                    </mxGeometry>
                </mxCell>
                <mxCell id="151" value="" style="endArrow=none;html=1;" parent="1" edge="1">
                    <mxGeometry width="50" height="50" relative="1" as="geometry">
                        <mxPoint x="760" y="182" as="sourcePoint"/>
                        <mxPoint x="-120" y="183.8798876953125" as="targetPoint"/>
                    </mxGeometry>
                </mxCell>
                <mxCell id="152" value="" style="endArrow=none;html=1;" parent="1" edge="1">
                    <mxGeometry width="50" height="50" relative="1" as="geometry">
                        <mxPoint x="760" y="450" as="sourcePoint"/>
                        <mxPoint x="-120" y="451.8798876953125" as="targetPoint"/>
                    </mxGeometry>
                </mxCell>
                <mxCell id="153" value="" style="endArrow=none;html=1;" parent="1" edge="1">
                    <mxGeometry width="50" height="50" relative="1" as="geometry">
                        <mxPoint x="760" y="354" as="sourcePoint"/>
                        <mxPoint x="-120" y="355.8798876953125" as="targetPoint"/>
                    </mxGeometry>
                </mxCell>
                <mxCell id="154" value="" style="endArrow=none;html=1;" parent="1" edge="1">
                    <mxGeometry width="50" height="50" relative="1" as="geometry">
                        <mxPoint x="760" y="240" as="sourcePoint"/>
                        <mxPoint x="-120" y="241.8798876953125" as="targetPoint"/>
                    </mxGeometry>
                </mxCell>
                <mxCell id="155" value="" style="endArrow=none;html=1;" parent="1" edge="1">
                    <mxGeometry width="50" height="50" relative="1" as="geometry">
                        <mxPoint x="750" y="127.12" as="sourcePoint"/>
                        <mxPoint x="-130" y="128.9998876953125" as="targetPoint"/>
                    </mxGeometry>
                </mxCell>
                <mxCell id="156" value="Row 0" style="text;html=1;align=center;verticalAlign=middle;whiteSpace=wrap;rounded=0;" parent="1" vertex="1">
                    <mxGeometry x="-60" y="87" width="60" height="30" as="geometry"/>
                </mxCell>
                <mxCell id="157" value="Row 1" style="text;html=1;align=center;verticalAlign=middle;whiteSpace=wrap;rounded=0;" parent="1" vertex="1">
                    <mxGeometry x="-60" y="137" width="60" height="30" as="geometry"/>
                </mxCell>
                <mxCell id="158" value="Row 2" style="text;html=1;align=center;verticalAlign=middle;whiteSpace=wrap;rounded=0;" parent="1" vertex="1">
                    <mxGeometry x="-60" y="201" width="60" height="30" as="geometry"/>
                </mxCell>
                <mxCell id="159" value="Row 3" style="text;html=1;align=center;verticalAlign=middle;whiteSpace=wrap;rounded=0;" parent="1" vertex="1">
                    <mxGeometry x="-50" y="245.5" width="60" height="30" as="geometry"/>
                </mxCell>
                <mxCell id="160" value="Row 4" style="text;html=1;align=center;verticalAlign=middle;whiteSpace=wrap;rounded=0;" parent="1" vertex="1">
                    <mxGeometry x="-40" y="300" width="60" height="30" as="geometry"/>
                </mxCell>
                <mxCell id="161" value="Row 5" style="text;html=1;align=center;verticalAlign=middle;whiteSpace=wrap;rounded=0;" parent="1" vertex="1">
                    <mxGeometry x="-40" y="370" width="60" height="30" as="geometry"/>
                </mxCell>
                <mxCell id="162" value="Row 6" style="text;html=1;align=center;verticalAlign=middle;whiteSpace=wrap;rounded=0;" parent="1" vertex="1">
                    <mxGeometry x="-50" y="410" width="60" height="30" as="geometry"/>
                </mxCell>
                <mxCell id="163" value="Row 7" style="text;html=1;align=center;verticalAlign=middle;whiteSpace=wrap;rounded=0;" parent="1" vertex="1">
                    <mxGeometry x="-40" y="460" width="60" height="30" as="geometry"/>
                </mxCell>
                <mxCell id="165" value="" style="rounded=0;whiteSpace=wrap;html=1;fillColor=none;strokeColor=#d3d3d3;strokeWidth=2;" parent="1" vertex="1">
                    <mxGeometry x="32.39" y="690" width="375" height="400" as="geometry"/>
                </mxCell>
                <mxCell id="166" value="Lemons&lt;div&gt;$1.00&lt;/div&gt;" style="whiteSpace=wrap;html=1;aspect=fixed;" parent="1" vertex="1">
                    <mxGeometry x="42.39" y="705" width="116" height="116" as="geometry"/>
                </mxCell>
                <mxCell id="167" value="Lemonade&lt;div&gt;$2.00&lt;/div&gt;" style="whiteSpace=wrap;html=1;aspect=fixed;" parent="1" vertex="1">
                    <mxGeometry x="161.89" y="705" width="116" height="116" as="geometry"/>
                </mxCell>
                <mxCell id="168" value="Mango Lemonade&lt;div&gt;$2.50&lt;/div&gt;" style="whiteSpace=wrap;html=1;aspect=fixed;" parent="1" vertex="1">
                    <mxGeometry x="282.39" y="705" width="114.78" height="116" as="geometry"/>
                </mxCell>
                <mxCell id="169" value="&lt;span style=&quot;color: rgb(0, 0, 0);&quot;&gt;Strawberry Lemonade&lt;/span&gt;&lt;div&gt;&lt;span style=&quot;color: rgb(0, 0, 0);&quot;&gt;&lt;span style=&quot;color: rgb(63, 63, 63);&quot;&gt;$2.50&lt;/span&gt;&lt;/span&gt;&lt;/div&gt;" style="whiteSpace=wrap;html=1;aspect=fixed;" parent="1" vertex="1">
                    <mxGeometry x="42.5" y="825" width="116" height="116" as="geometry"/>
                </mxCell>
                <mxCell id="170" value="&lt;span style=&quot;color: rgb(0, 0, 0);&quot;&gt;Blueberry Lemonade&lt;/span&gt;&lt;div&gt;&lt;span style=&quot;color: rgb(0, 0, 0);&quot;&gt;&lt;span style=&quot;color: rgb(63, 63, 63);&quot;&gt;$2.50&lt;/span&gt;&lt;/span&gt;&lt;/div&gt;" style="whiteSpace=wrap;html=1;aspect=fixed;" parent="1" vertex="1">
                    <mxGeometry x="162" y="825" width="116" height="116" as="geometry"/>
                </mxCell>
                <mxCell id="171" value="&lt;span style=&quot;color: rgb(0, 0, 0);&quot;&gt;Raspberry&amp;nbsp;&lt;/span&gt;&lt;span style=&quot;background-color: transparent;&quot;&gt;Lemonade&lt;/span&gt;&lt;div&gt;&lt;span style=&quot;color: rgb(63, 63, 63);&quot;&gt;$2.50&lt;/span&gt;&lt;span style=&quot;background-color: transparent;&quot;&gt;&lt;/span&gt;&lt;/div&gt;" style="whiteSpace=wrap;html=1;aspect=fixed;" parent="1" vertex="1">
                    <mxGeometry x="282.5" y="825" width="114.78" height="116" as="geometry"/>
                </mxCell>
                <mxCell id="172" value="Item Select" style="text;html=1;align=left;verticalAlign=middle;whiteSpace=wrap;rounded=0;fontSize=11;" parent="1" vertex="1">
                    <mxGeometry x="50.39" y="687" width="59.5" height="8" as="geometry"/>
                </mxCell>
                <mxCell id="177" value="" style="endArrow=none;html=1;" parent="1" edge="1">
                    <mxGeometry width="50" height="50" relative="1" as="geometry">
                        <mxPoint x="470" y="821" as="sourcePoint"/>
                        <mxPoint x="-50" y="822" as="targetPoint"/>
                    </mxGeometry>
                </mxCell>
                <mxCell id="179" value="" style="endArrow=none;html=1;" parent="1" edge="1">
                    <mxGeometry width="50" height="50" relative="1" as="geometry">
                        <mxPoint x="479.89" y="948" as="sourcePoint"/>
                        <mxPoint x="-40.11" y="949" as="targetPoint"/>
                    </mxGeometry>
                </mxCell>
                <mxCell id="180" value="" style="endArrow=none;html=1;" parent="1" edge="1">
                    <mxGeometry width="50" height="50" relative="1" as="geometry">
                        <mxPoint x="470" y="704" as="sourcePoint"/>
                        <mxPoint x="-50" y="705" as="targetPoint"/>
                    </mxGeometry>
                </mxCell>
                <mxCell id="181" value="" style="endArrow=none;html=1;" parent="1" edge="1">
                    <mxGeometry width="50" height="50" relative="1" as="geometry">
                        <mxPoint x="480" y="1090" as="sourcePoint"/>
                        <mxPoint x="-40" y="1091" as="targetPoint"/>
                    </mxGeometry>
                </mxCell>
                <mxCell id="182" value="Row 0" style="text;html=1;align=center;verticalAlign=middle;whiteSpace=wrap;rounded=0;" parent="1" vertex="1">
                    <mxGeometry x="-40" y="748" width="60" height="30" as="geometry"/>
                </mxCell>
                <mxCell id="183" value="Row 2" style="text;html=1;align=center;verticalAlign=middle;whiteSpace=wrap;rounded=0;" parent="1" vertex="1">
                    <mxGeometry x="-40" y="860" width="60" height="30" as="geometry"/>
                </mxCell>
                <mxCell id="184" value="Row 2" style="text;html=1;align=center;verticalAlign=middle;whiteSpace=wrap;rounded=0;" parent="1" vertex="1">
                    <mxGeometry x="-50" y="1000" width="60" height="30" as="geometry"/>
                </mxCell>
                <mxCell id="185" value="" style="rounded=0;whiteSpace=wrap;html=1;fillColor=none;strokeColor=#d3d3d3;strokeWidth=2;" parent="1" vertex="1">
                    <mxGeometry x="580.5" y="693" width="180" height="300" as="geometry"/>
                </mxCell>
                <mxCell id="186" value="250ml Classic Lemonade" style="text;html=1;align=left;verticalAlign=middle;whiteSpace=wrap;rounded=0;fontSize=11;" parent="1" vertex="1">
                    <mxGeometry x="674.5" y="705" width="90" height="30" as="geometry"/>
                </mxCell>
                <mxCell id="187" value="250ml Strawberry Lemonade" style="text;html=1;align=left;verticalAlign=middle;whiteSpace=wrap;rounded=0;fontSize=11;" parent="1" vertex="1">
                    <mxGeometry x="674.5" y="760" width="90" height="30" as="geometry"/>
                </mxCell>
                <mxCell id="188" value="$2.50" style="text;html=1;align=left;verticalAlign=middle;whiteSpace=wrap;rounded=0;fontSize=11;" parent="1" vertex="1">
                    <mxGeometry x="616.5" y="767" width="30" height="8" as="geometry"/>
                </mxCell>
                <mxCell id="189" value="$2.00" style="text;html=1;align=left;verticalAlign=middle;whiteSpace=wrap;rounded=0;fontSize=11;" parent="1" vertex="1">
                    <mxGeometry x="617.5" y="722" width="30" height="8" as="geometry"/>
                </mxCell>
                <mxCell id="190" value="1x" style="text;html=1;align=center;verticalAlign=middle;whiteSpace=wrap;rounded=0;fontSize=11;" parent="1" vertex="1">
                    <mxGeometry x="584.5" y="767" width="30" height="8" as="geometry"/>
                </mxCell>
                <mxCell id="191" value="1x" style="text;html=1;align=center;verticalAlign=middle;whiteSpace=wrap;rounded=0;fontSize=11;" parent="1" vertex="1">
                    <mxGeometry x="584.5" y="722" width="30" height="8" as="geometry"/>
                </mxCell>
                <mxCell id="192" value="Cart" style="text;html=1;align=left;verticalAlign=middle;whiteSpace=wrap;rounded=0;fontSize=11;" parent="1" vertex="1">
                    <mxGeometry x="591.5" y="690" width="59.5" height="7" as="geometry"/>
                </mxCell>
                <mxCell id="194" value="" style="endArrow=none;html=1;" parent="1" edge="1">
                    <mxGeometry width="50" height="50" relative="1" as="geometry">
                        <mxPoint x="780" y="749" as="sourcePoint"/>
                        <mxPoint x="560" y="749" as="targetPoint"/>
                    </mxGeometry>
                </mxCell>
                <mxCell id="195" value="" style="endArrow=none;html=1;" parent="1" edge="1">
                    <mxGeometry width="50" height="50" relative="1" as="geometry">
                        <mxPoint x="780.5" y="800" as="sourcePoint"/>
                        <mxPoint x="560.5" y="800" as="targetPoint"/>
                    </mxGeometry>
                </mxCell>
                <mxCell id="197" value="" style="endArrow=none;html=1;" parent="1" edge="1">
                    <mxGeometry width="50" height="50" relative="1" as="geometry">
                        <mxPoint x="770" y="842.7" as="sourcePoint"/>
                        <mxPoint x="550" y="842.7" as="targetPoint"/>
                    </mxGeometry>
                </mxCell>
                <mxCell id="198" value="" style="endArrow=none;html=1;" parent="1" edge="1">
                    <mxGeometry width="50" height="50" relative="1" as="geometry">
                        <mxPoint x="780" y="890" as="sourcePoint"/>
                        <mxPoint x="560" y="890" as="targetPoint"/>
                    </mxGeometry>
                </mxCell>
                <mxCell id="199" value="" style="endArrow=none;html=1;" parent="1" edge="1">
                    <mxGeometry width="50" height="50" relative="1" as="geometry">
                        <mxPoint x="780.5" y="941" as="sourcePoint"/>
                        <mxPoint x="560.5" y="941" as="targetPoint"/>
                    </mxGeometry>
                </mxCell>
                <mxCell id="200" value="Row 0" style="text;html=1;align=center;verticalAlign=middle;whiteSpace=wrap;rounded=0;" parent="1" vertex="1">
                    <mxGeometry x="510" y="711" width="60" height="30" as="geometry"/>
                </mxCell>
                <mxCell id="201" value="Row 1" style="text;html=1;align=center;verticalAlign=middle;whiteSpace=wrap;rounded=0;" parent="1" vertex="1">
                    <mxGeometry x="517" y="760" width="60" height="30" as="geometry"/>
                </mxCell>
                <mxCell id="202" value="Row 2" style="text;html=1;align=center;verticalAlign=middle;whiteSpace=wrap;rounded=0;" parent="1" vertex="1">
                    <mxGeometry x="520.5" y="805" width="60" height="20" as="geometry"/>
                </mxCell>
                <mxCell id="204" value="Row 3" style="text;html=1;align=center;verticalAlign=middle;whiteSpace=wrap;rounded=0;" parent="1" vertex="1">
                    <mxGeometry x="516" y="860" width="60" height="20" as="geometry"/>
                </mxCell>
                <mxCell id="205" value="Row 4" style="text;html=1;align=center;verticalAlign=middle;whiteSpace=wrap;rounded=0;" parent="1" vertex="1">
                    <mxGeometry x="517" y="910" width="60" height="20" as="geometry"/>
                </mxCell>
                <mxCell id="206" value="Row 5" style="text;html=1;align=center;verticalAlign=middle;whiteSpace=wrap;rounded=0;" parent="1" vertex="1">
                    <mxGeometry x="520.5" y="960" width="60" height="20" as="geometry"/>
                </mxCell>
                <mxCell id="207" value="" style="endArrow=none;html=1;" parent="1" edge="1">
                    <mxGeometry width="50" height="50" relative="1" as="geometry">
                        <mxPoint x="670" y="640" as="sourcePoint"/>
                        <mxPoint x="670.2" y="1024" as="targetPoint"/>
                    </mxGeometry>
                </mxCell>
                <mxCell id="208" value="" style="endArrow=none;html=1;" parent="1" edge="1">
                    <mxGeometry width="50" height="50" relative="1" as="geometry">
                        <mxPoint x="617.5" y="646" as="sourcePoint"/>
                        <mxPoint x="617.7" y="1030" as="targetPoint"/>
                    </mxGeometry>
                </mxCell>
                <mxCell id="209" value="" style="endArrow=none;html=1;" parent="1" edge="1">
                    <mxGeometry width="50" height="50" relative="1" as="geometry">
                        <mxPoint x="720" y="651" as="sourcePoint"/>
                        <mxPoint x="720.2" y="1035" as="targetPoint"/>
                    </mxGeometry>
                </mxCell>
                <mxCell id="210" value="Column 0" style="text;html=1;align=center;verticalAlign=middle;whiteSpace=wrap;rounded=0;" parent="1" vertex="1">
                    <mxGeometry x="557.5" y="657" width="60" height="30" as="geometry"/>
                </mxCell>
                <mxCell id="211" value="Column 1" style="text;html=1;align=center;verticalAlign=middle;whiteSpace=wrap;rounded=0;" parent="1" vertex="1">
                    <mxGeometry x="614.5" y="650" width="60" height="30" as="geometry"/>
                </mxCell>
                <mxCell id="212" value="Column 2" style="text;html=1;align=center;verticalAlign=middle;whiteSpace=wrap;rounded=0;" parent="1" vertex="1">
                    <mxGeometry x="660.5" y="660" width="60" height="30" as="geometry"/>
                </mxCell>
                <mxCell id="213" value="Column 3" style="text;html=1;align=center;verticalAlign=middle;whiteSpace=wrap;rounded=0;" parent="1" vertex="1">
                    <mxGeometry x="720.5" y="665" width="60" height="30" as="geometry"/>
                </mxCell>
                <mxCell id="214" value="" style="endArrow=none;html=1;" parent="1" edge="1">
                    <mxGeometry width="50" height="50" relative="1" as="geometry">
                        <mxPoint x="157.67000000000002" y="679" as="sourcePoint"/>
                        <mxPoint x="158" y="1132" as="targetPoint"/>
                    </mxGeometry>
                </mxCell>
                <mxCell id="215" value="" style="endArrow=none;html=1;" parent="1" edge="1">
                    <mxGeometry width="50" height="50" relative="1" as="geometry">
                        <mxPoint x="278" y="680" as="sourcePoint"/>
                        <mxPoint x="278.33" y="1133" as="targetPoint"/>
                    </mxGeometry>
                </mxCell>
                <mxCell id="216" value="Column 0" style="text;html=1;align=center;verticalAlign=middle;whiteSpace=wrap;rounded=0;" parent="1" vertex="1">
                    <mxGeometry x="70" y="650" width="60" height="30" as="geometry"/>
                </mxCell>
                <mxCell id="217" value="Column 1" style="text;html=1;align=center;verticalAlign=middle;whiteSpace=wrap;rounded=0;" parent="1" vertex="1">
                    <mxGeometry x="180" y="650" width="60" height="30" as="geometry"/>
                </mxCell>
                <mxCell id="218" value="Column 2" style="text;html=1;align=center;verticalAlign=middle;whiteSpace=wrap;rounded=0;" parent="1" vertex="1">
                    <mxGeometry x="300" y="657" width="60" height="30" as="geometry"/>
                </mxCell>
                <mxCell id="224" value="Column 1" style="text;html=1;align=center;verticalAlign=middle;whiteSpace=wrap;rounded=0;" parent="1" vertex="1">
                    <mxGeometry x="1130" y="30" width="60" height="30" as="geometry"/>
                </mxCell>
                <mxCell id="225" value="Column 0" style="text;html=1;align=center;verticalAlign=middle;whiteSpace=wrap;rounded=0;" parent="1" vertex="1">
                    <mxGeometry x="990" y="30" width="60" height="30" as="geometry"/>
                </mxCell>
                <mxCell id="226" value="Row 0&amp;nbsp;" style="text;html=1;align=center;verticalAlign=middle;whiteSpace=wrap;rounded=0;" parent="1" vertex="1">
                    <mxGeometry x="900" y="97" width="60" height="30" as="geometry"/>
                </mxCell>
                <mxCell id="227" value="Row 1" style="text;html=1;align=center;verticalAlign=middle;whiteSpace=wrap;rounded=0;" parent="1" vertex="1">
                    <mxGeometry x="900" y="144" width="60" height="30" as="geometry"/>
                </mxCell>
                <mxCell id="228" value="Row 2" style="text;html=1;align=center;verticalAlign=middle;whiteSpace=wrap;rounded=0;" parent="1" vertex="1">
                    <mxGeometry x="890" y="174" width="60" height="30" as="geometry"/>
                </mxCell>
                <mxCell id="229" value="Row 3" style="text;html=1;align=center;verticalAlign=middle;whiteSpace=wrap;rounded=0;" parent="1" vertex="1">
                    <mxGeometry x="900" y="193" width="60" height="30" as="geometry"/>
                </mxCell>
                <mxCell id="233" value="Row 4" style="text;html=1;align=center;verticalAlign=middle;whiteSpace=wrap;rounded=0;" parent="1" vertex="1">
                    <mxGeometry x="900" y="226.5" width="60" height="30" as="geometry"/>
                </mxCell>
                <mxCell id="238" value="Row 0" style="text;html=1;align=center;verticalAlign=middle;whiteSpace=wrap;rounded=0;" vertex="1" parent="1">
                    <mxGeometry x="900" y="400" width="60" height="30" as="geometry"/>
                </mxCell>
                <mxCell id="239" value="Row 1" style="text;html=1;align=center;verticalAlign=middle;whiteSpace=wrap;rounded=0;" vertex="1" parent="1">
                    <mxGeometry x="890" y="470" width="60" height="30" as="geometry"/>
                </mxCell>
                <mxCell id="240" value="Row 2" style="text;html=1;align=center;verticalAlign=middle;whiteSpace=wrap;rounded=0;" vertex="1" parent="1">
                    <mxGeometry x="900" y="520" width="60" height="30" as="geometry"/>
                </mxCell>
                <mxCell id="247" value="Row 4" style="text;html=1;align=center;verticalAlign=middle;whiteSpace=wrap;rounded=0;" vertex="1" parent="1">
                    <mxGeometry x="900" y="270" width="60" height="30" as="geometry"/>
                </mxCell>
            </root>
        </mxGraphModel>
    </diagram>
</mxfile>